<?xml version="1.0" encoding="UTF-8"?>
<svg width="17px" height="29px" viewBox="0 0 17 29" version="1.1" xmlns="http://www.w3.org/2000/svg" xmlns:xlink="http://www.w3.org/1999/xlink">
    <!-- Generator: Sketch 50.2 (55047) - http://www.bohemiancoding.com/sketch -->
    <title>icon</title>
    <desc>Created with Sketch.</desc>
    <defs></defs>
    <g id="Page-1" stroke="none" stroke-width="1" fill="none" fill-rule="evenodd">
        <g id="Main-page-SCCCDM-наставники-випадающее-меню" transform="translate(-618.000000, -203.000000)" fill="#0FAD19" fill-rule="nonzero">
            <g id="icon" transform="translate(618.000000, 203.000000)">
                <path d="M14.2549346,0 L2.10276993,0 C0.939757455,0 0.000927476678,0.943039978 0.000927476678,2.10394745 L0.000927476678,26.7808619 C0.000927476678,27.9407168 0.939757455,28.8827043 2.10276993,28.8827043 L14.2549346,28.8827043 C15.4158421,28.8827043 16.3567771,27.9407168 16.3567771,26.7808619 L16.3567771,2.10394745 C16.3567771,0.943039978 15.4158421,0 14.2549346,0 Z M5.18027986,1.27773497 L11.1795297,1.27773497 C11.3310897,1.27773497 11.4542322,1.50402246 11.4542322,1.78398746 C11.4542322,2.06395245 11.3310897,2.29129245 11.1795297,2.29129245 L5.18027986,2.29129245 C5.02766736,2.29129245 4.90662986,2.06395245 4.90662986,1.78398746 C4.90662986,1.50402246 5.02766736,1.27773497 5.18027986,1.27773497 Z M8.17990479,26.8061219 C7.4399973,26.8061219 6.83796732,26.2040919 6.83796732,25.4631319 C6.83796732,24.7221719 7.4399973,24.1222469 8.17990479,24.1222469 C8.91770727,24.1222469 9.51973725,24.7221719 9.51973725,25.4631319 C9.51973725,26.2040919 8.91770727,26.8061219 8.17990479,26.8061219 Z M14.7822371,22.2077495 L1.57651994,22.2077495 L1.57651994,3.55008242 L14.7822371,3.55008242 L14.7822371,22.2077495 Z" id="Shape"></path>
            </g>
        </g>
    </g>
</svg>